<svg width="37" height="36" viewBox="0 0 37 36" fill="none" xmlns="http://www.w3.org/2000/svg">
<g id="behance / 24 / Outline">
<path id="Vector" d="M30.9414 9.52506H23.1252V11.6401H30.9722L30.9414 9.52506ZM29.2918 24.0751C28.6989 24.4573 27.9986 24.6512 27.2877 24.6301C26.817 24.6778 26.3414 24.6305 25.8904 24.4911C25.4394 24.3517 25.0229 24.1233 24.6668 23.8201C24.0086 23.0939 23.6659 22.1473 23.711 21.1801H33.9168C33.9904 20.1729 33.902 19.1607 33.6547 18.1801C33.4156 17.2471 32.9971 16.3666 32.4214 15.5851C31.8419 14.827 31.0935 14.2064 30.2322 13.7701C29.274 13.3104 28.2172 13.079 27.1489 13.0951C26.1442 13.0879 25.1482 13.2766 24.2197 13.6501C23.3695 13.9988 22.5991 14.5087 21.9535 15.1501C21.3097 15.8042 20.8111 16.5803 20.4889 17.4301C20.1431 18.3474 19.9708 19.318 19.9802 20.2951C19.9643 21.286 20.1314 22.2716 20.4735 23.2051C20.7641 24.0504 21.2253 24.8306 21.8302 25.5001C22.4559 26.1573 23.225 26.6698 24.081 27.0001C25.0354 27.3539 26.0506 27.527 27.0718 27.5101C28.5047 27.5535 29.9193 27.1886 31.1418 26.4601C32.3766 25.6064 33.2655 24.3594 33.6547 22.9351H30.2477C30.0653 23.4063 29.7296 23.8066 29.2918 24.0751ZM24.0039 17.8951C24.1239 17.5211 24.3231 17.1757 24.5886 16.8812C24.8541 16.5867 25.1801 16.3495 25.5456 16.1851C26.0296 15.9731 26.5567 15.8705 27.0872 15.8851C27.4705 15.8532 27.8564 15.9024 28.2183 16.0293C28.5802 16.1561 28.9096 16.3577 29.1839 16.6201C29.7077 17.244 30.0439 17.9967 30.1552 18.7951H23.7572C23.7822 18.4902 23.839 18.1887 23.9268 17.8951H24.0039ZM15.8485 17.1751C16.6331 16.8572 17.3149 16.3389 17.8218 15.6751C18.2878 14.9701 18.5192 14.1426 18.4847 13.3051C18.515 12.5413 18.3619 11.7812 18.0377 11.0851C17.7653 10.4819 17.328 9.96309 16.7735 9.58506C16.1856 9.19201 15.518 8.92605 14.8156 8.80506C13.9843 8.63543 13.1365 8.55495 12.2872 8.56506H3.0835V27.4351H12.4877C13.3459 27.4357 14.2007 27.3298 15.0314 27.1201C15.8188 26.9219 16.5648 26.592 17.236 26.1451C17.8862 25.7066 18.4156 25.1194 18.7777 24.4351C19.1784 23.6697 19.3745 22.8186 19.3481 21.9601C19.3773 20.8962 19.0706 19.8491 18.4693 18.9601C17.8227 18.0659 16.8637 17.4314 15.7714 17.1751H15.8485ZM7.35391 11.7901H11.3468C11.7137 11.7896 12.0799 11.8197 12.4414 11.8801C12.7743 11.9281 13.0941 12.0403 13.3818 12.2101C13.6599 12.3631 13.8852 12.5927 14.0293 12.8701C14.2079 13.2026 14.293 13.5752 14.276 13.9501C14.3047 14.2729 14.254 14.5978 14.128 14.8978C14.002 15.1977 13.8043 15.4642 13.5514 15.6751C12.9997 16.0441 12.3395 16.2284 11.6706 16.2001H7.35391V11.7901ZM14.8156 22.9501C14.6572 23.2558 14.4177 23.5147 14.1218 23.7001C13.814 23.8864 13.4747 24.0184 13.1197 24.0901C12.7252 24.176 12.3215 24.2163 11.9172 24.2101H7.29225V19.0351H11.9172C12.7109 19.0012 13.4947 19.2169 14.1527 19.6501C14.4499 19.9096 14.6802 20.2336 14.8248 20.5958C14.9694 20.9581 15.0244 21.3483 14.9852 21.7351C15.0268 22.1474 14.9688 22.5635 14.8156 22.9501Z" fill="black"/>
</g>
</svg>
