<svg width="36" height="36" viewBox="0 0 36 36" fill="none" xmlns="http://www.w3.org/2000/svg">
<g id="facebook / 24 / Outline">
<path id="Vector" d="M31.35 3H4.65C4.21239 3 3.79271 3.17384 3.48327 3.48327C3.17384 3.79271 3 4.21239 3 4.65V31.35C3 31.5667 3.04268 31.7812 3.1256 31.9814C3.20852 32.1816 3.33006 32.3635 3.48327 32.5167C3.63649 32.6699 3.81839 32.7915 4.01857 32.8744C4.21876 32.9573 4.43332 33 4.65 33H19.02V21.375H15.12V16.875H19.02V13.5C18.9392 12.7076 19.0328 11.9072 19.2941 11.1548C19.5554 10.4024 19.9781 9.71632 20.5327 9.14462C21.0872 8.57292 21.7602 8.12946 22.5042 7.84536C23.2483 7.56125 24.0455 7.44338 24.84 7.5C26.0075 7.49282 27.1744 7.55292 28.335 7.68V11.73H25.95C24.06 11.73 23.7 12.63 23.7 13.935V16.83H28.2L27.615 21.33H23.7V33H31.35C31.5667 33 31.7812 32.9573 31.9814 32.8744C32.1816 32.7915 32.3635 32.6699 32.5167 32.5167C32.6699 32.3635 32.7915 32.1816 32.8744 31.9814C32.9573 31.7812 33 31.5667 33 31.35V4.65C33 4.43332 32.9573 4.21876 32.8744 4.01857C32.7915 3.81839 32.6699 3.63649 32.5167 3.48327C32.3635 3.33006 32.1816 3.20852 31.9814 3.1256C31.7812 3.04268 31.5667 3 31.35 3Z" fill="black"/>
</g>
</svg>
