<svg width="14" height="20" viewBox="0 0 14 20" fill="none" xmlns="http://www.w3.org/2000/svg">
<g id="figma 1" clip-path="url(#clip0_1_23)">
<path id="Vector" fill-rule="evenodd" clip-rule="evenodd" d="M4.07484 0.955811H9.92483C11.9415 0.955811 13.5832 2.55163 13.5832 4.46747C13.5832 5.58747 13.0215 6.59914 12.1515 7.24497C13.0215 7.89164 13.5832 8.90249 13.5832 10.0233C13.5832 11.9383 11.9415 13.5341 9.92483 13.5341C9.10316 13.5341 8.344 13.27 7.73317 12.8266V15.5783C7.73317 17.4941 6.09234 19.09 4.07484 19.09C2.05817 19.09 0.416504 17.4941 0.416504 15.5783C0.416504 14.4583 0.97816 13.4475 1.84816 12.8008C0.97816 12.1541 0.416504 11.1433 0.416504 10.0233C0.416504 8.90249 0.97816 7.89164 1.84816 7.24497C0.97816 6.59914 0.416504 5.58747 0.416504 4.46747C0.416504 2.55163 2.05817 0.955811 4.07484 0.955811ZM6.26649 13.5341H4.07484C2.88317 13.5341 1.88317 14.4466 1.88317 15.5783C1.88317 16.7108 2.88317 17.6225 4.07484 17.6225C5.26734 17.6225 6.26649 16.7108 6.26649 15.5783V13.5341ZM7.73317 10.0233C7.73317 8.89082 8.73233 7.97831 9.92483 7.97831C11.1165 7.97831 12.1165 8.89082 12.1165 10.0233C12.1165 11.155 11.1165 12.0675 9.92483 12.0675C8.73233 12.0675 7.73317 11.155 7.73317 10.0233ZM4.04733 7.97915C2.86733 7.99248 1.88317 8.89999 1.88317 10.0233C1.88317 11.155 2.88317 12.0675 4.07484 12.0675H6.26649V7.97831H4.07484L4.04733 7.97915ZM6.26649 6.51164V2.4233H4.07484C2.88317 2.4233 1.88317 3.33497 1.88317 4.46747C1.88317 5.59997 2.88317 6.51164 4.07484 6.51164H6.26649ZM7.73317 6.51164H9.92483C11.1165 6.51164 12.1165 5.59997 12.1165 4.46747C12.1165 3.33497 11.1165 2.4233 9.92483 2.4233H7.73317V6.51164Z" fill="#0D0D0D"/>
</g>
<defs>
<clipPath id="clip0_1_23">
<rect width="14" height="20" fill="white"/>
</clipPath>
</defs>
</svg>
