<svg width="36" height="36" viewBox="0 0 36 36" fill="none" xmlns="http://www.w3.org/2000/svg">
<g id="facebook messenger / 24 / Outline">
<path id="Vector" d="M18.0001 3.00001C16.0492 2.92917 14.1041 3.2537 12.2818 3.95408C10.4596 4.65445 8.79782 5.7162 7.39654 7.07544C5.99526 8.43469 4.8834 10.0633 4.12786 11.8634C3.37233 13.6635 2.98872 15.5978 3.00012 17.55C2.97498 19.5768 3.38205 21.5856 4.1942 23.4427C5.00636 25.2998 6.20495 26.9625 7.71012 28.32C7.82962 28.4265 7.92692 28.5555 7.99642 28.6996C8.06592 28.8438 8.10626 29.0002 8.11512 29.16V31.83C8.12334 32.0268 8.1793 32.2187 8.27817 32.3891C8.37704 32.5595 8.51586 32.7033 8.68266 32.8081C8.84946 32.9129 9.03925 32.9756 9.23566 32.9907C9.43207 33.0059 9.62922 32.973 9.81012 32.895L12.8101 31.59C13.0663 31.4933 13.349 31.4933 13.6051 31.59C15.0233 31.9728 16.4862 32.1645 17.9551 32.16C21.822 32.166 25.5328 30.6356 28.2713 27.9055C31.0098 25.1755 32.5517 21.4694 32.5576 17.6025C32.5636 13.7357 31.0332 10.0248 28.3031 7.2863C25.5731 4.5478 21.867 3.00598 18.0001 3.00001ZM27.0001 14.19L22.6051 21.18C22.4394 21.4432 22.2208 21.6691 21.9634 21.8436C21.7059 22.018 21.415 22.1372 21.1092 22.1936C20.8033 22.25 20.4891 22.2423 20.1863 22.1712C19.8835 22.1 19.5988 21.9668 19.3501 21.78L15.8401 19.155C15.6843 19.0382 15.4949 18.975 15.3001 18.975C15.1054 18.975 14.9159 19.0382 14.7601 19.155L10.0201 22.755C9.88811 22.8568 9.72429 22.9086 9.55776 22.901C9.39122 22.8935 9.23273 22.8272 9.11044 22.7139C8.98815 22.6006 8.90997 22.4476 8.88977 22.2822C8.86957 22.1167 8.90867 21.9494 9.00012 21.81L13.3951 14.82C13.5609 14.5568 13.7794 14.3309 14.0369 14.1564C14.2944 13.982 14.5852 13.8628 14.8911 13.8064C15.1969 13.75 15.5112 13.7577 15.8139 13.8289C16.1167 13.9001 16.4014 14.0332 16.6501 14.22L20.1601 16.845C20.3159 16.9619 20.5054 17.025 20.7001 17.025C20.8949 17.025 21.0843 16.9619 21.2401 16.845L25.9801 13.245C26.1121 13.1432 26.2759 13.0915 26.4425 13.099C26.609 13.1065 26.7675 13.1728 26.8898 13.2861C27.0121 13.3994 27.0903 13.5524 27.1105 13.7179C27.1307 13.8833 27.0916 14.0506 27.0001 14.19Z" fill="black"/>
</g>
</svg>
