<svg width="36" height="36" viewBox="0 0 36 36" fill="none" xmlns="http://www.w3.org/2000/svg">
<g id="skype / 24 / Outline">
<path id="Vector" d="M22.7088 17.7188C22.1082 17.3331 21.4563 17.0338 20.7723 16.8297C20.3526 16.7028 19.888 16.5786 19.4067 16.459C18.988 16.3422 18.4897 16.2225 17.8734 16.087C17.1395 15.9332 16.4192 15.7206 15.7194 15.4512C15.3588 15.311 15.0407 15.0798 14.7958 14.7803C14.6171 14.5354 14.5324 14.2344 14.557 13.9322C14.5562 13.608 14.664 13.2929 14.8632 13.0372C15.1426 12.7094 15.5052 12.463 15.9128 12.3238C16.5993 12.088 17.3228 11.9783 18.0484 12.0001C18.609 11.9911 19.1678 12.0651 19.7066 12.2198C20.0644 12.32 20.4015 12.4832 20.702 12.7017C20.8961 12.8401 21.0618 13.0147 21.1898 13.2159C21.2827 13.39 21.4091 13.544 21.5617 13.6691C21.7142 13.7942 21.89 13.888 22.0789 13.9451C22.2678 14.0021 22.4661 14.0213 22.6624 14.0016C22.8587 13.9819 23.0492 13.9236 23.223 13.8302C23.3968 13.7367 23.5504 13.6098 23.675 13.4568C23.7997 13.3039 23.8929 13.1278 23.9494 12.9387C24.0058 12.7497 24.0245 12.5513 24.0041 12.3551C23.9838 12.1588 23.9249 11.9685 23.8309 11.795C23.5144 11.2355 23.087 10.7465 22.5748 10.358C21.9834 9.90366 21.3125 9.56339 20.5966 9.35457C19.7696 9.11007 18.9107 8.99058 18.0484 9.00007C16.9528 8.97679 15.8621 9.15504 14.8309 9.52596C13.8979 9.86463 13.078 10.4572 12.4637 11.2369C11.8758 12.0125 11.5574 12.959 11.557 13.9322C11.5327 14.9011 11.8396 15.8493 12.4271 16.6202C12.9942 17.3346 13.7376 17.8889 14.5841 18.2286C15.2237 18.4747 15.8786 18.679 16.5447 18.8404C16.5572 18.8446 16.5657 18.8546 16.5785 18.8584C16.8656 18.9449 17.3248 19.0606 17.9884 19.2041C18.2469 19.2596 18.4905 19.321 18.7341 19.3818C18.7577 19.3889 18.7918 19.3963 18.8145 19.4034L18.8416 19.4075C19.2142 19.5024 19.5722 19.6006 19.9 19.7007C20.3039 19.8186 20.6894 19.9922 21.0455 20.2164C21.267 20.3559 21.453 20.5449 21.589 20.7686C21.7212 21.0415 21.7824 21.3433 21.7669 21.6461C21.7879 22.0381 21.6748 22.4256 21.4461 22.7447C21.1371 23.1466 20.7192 23.4512 20.242 23.6222C19.5317 23.8963 18.7735 24.0248 18.0125 24.0001C17.1318 24.0342 16.2557 23.8574 15.4571 23.4844C15.0886 23.2881 14.772 23.0069 14.5335 22.6641C14.3663 22.4447 14.2617 22.1839 14.231 21.9097C14.231 21.5119 14.073 21.1304 13.7917 20.8491C13.5104 20.5678 13.1288 20.4097 12.731 20.4097C12.3332 20.4097 11.9517 20.5678 11.6704 20.8491C11.3891 21.1304 11.231 21.5119 11.231 21.9097C11.2562 22.7942 11.5469 23.6507 12.0653 24.3677C12.5834 25.1145 13.2738 25.7254 14.0779 26.149C15.3015 26.7462 16.6515 27.0382 18.0125 27.0001C19.169 27.0279 20.3191 26.8211 21.3934 26.3922C22.392 26.0091 23.2591 25.3465 23.8909 24.4835C24.4913 23.6419 24.7988 22.6266 24.7661 21.5933C24.7802 20.7924 24.5864 20.0016 24.2036 19.2979C23.8342 18.663 23.3225 18.1225 22.7088 17.7188ZM33.5421 20.5372C33.947 18.0716 33.759 15.5451 32.9936 13.1666C32.2283 10.7881 30.9076 8.62607 29.1408 6.8593C27.3741 5.09253 25.212 3.77185 22.8335 3.00651C20.455 2.24117 17.9285 2.05317 15.463 2.45808C13.6429 1.58547 11.5968 1.29934 9.60722 1.63917C7.6176 1.979 5.78252 2.92803 4.35528 4.35528C2.92803 5.78252 1.979 7.6176 1.63917 9.60722C1.29934 11.5968 1.58547 13.6429 2.45808 15.463C2.05317 17.9285 2.24117 20.455 3.00651 22.8335C3.77185 25.212 5.09253 27.3741 6.8593 29.1408C8.62607 30.9076 10.7881 32.2283 13.1666 32.9936C15.5451 33.759 18.0716 33.947 20.5372 33.5421C22.3572 34.4147 24.4033 34.7008 26.3929 34.361C28.3825 34.0211 30.2176 33.0721 31.6449 31.6449C33.0721 30.2176 34.0211 28.3825 34.361 26.3929C34.7008 24.4033 34.4147 22.3572 33.5421 20.5372ZM24.7501 31.5001C23.6122 31.4996 22.4929 31.2119 21.4959 30.6636C21.1865 30.4929 20.8269 30.4363 20.4801 30.504C18.6314 30.8727 16.7239 30.8266 14.8952 30.3689C13.0666 29.9111 11.3623 29.0532 9.9053 27.8571C8.44834 26.6609 7.27503 25.1563 6.47001 23.4517C5.66499 21.7471 5.24832 19.8852 5.25007 18.0001C5.25161 17.1669 5.33403 16.3359 5.49616 15.5186C5.56389 15.1721 5.50763 14.8128 5.33724 14.5036C4.6322 13.2227 4.36219 11.7475 4.56783 10.2999C4.77346 8.85234 5.44362 7.51069 6.47748 6.47682C7.51134 5.44295 8.85298 4.77278 10.3005 4.56713C11.7481 4.36148 13.2233 4.63148 14.5042 5.3365C14.8134 5.5078 15.1732 5.56435 15.5201 5.49616C17.3688 5.12741 19.2762 5.17356 21.1049 5.63128C22.9336 6.08901 24.6379 6.94691 26.0948 8.14308C27.5518 9.33925 28.7251 10.8439 29.5301 12.5484C30.3352 14.253 30.7518 16.115 30.7501 18.0001C30.7485 18.8332 30.6661 19.6643 30.504 20.4815C30.4363 20.8281 30.4925 21.1874 30.663 21.4966C31.2289 22.5243 31.5172 23.6817 31.4994 24.8547C31.4815 26.0277 31.1582 27.1758 30.5612 28.1857C29.9643 29.1957 29.1143 30.0325 28.0953 30.6137C27.0762 31.1949 25.9232 31.5004 24.7501 31.5001Z" fill="black"/>
</g>
</svg>
