<svg width="37" height="36" viewBox="0 0 37 36" fill="none" xmlns="http://www.w3.org/2000/svg">
<g id="slack / 24 / Outline">
<path id="Vector" d="M3.0835 22.005C3.0835 22.8006 3.40835 23.5637 3.98658 24.1263C4.56482 24.6889 5.34908 25.005 6.16683 25.005C6.98458 25.005 7.76884 24.6889 8.34708 24.1263C8.92531 23.5637 9.25016 22.8006 9.25016 22.005V19.005H6.16683C5.34908 19.005 4.56482 19.3211 3.98658 19.8837C3.40835 20.4463 3.0835 21.2094 3.0835 22.005ZM22.5702 16.995C23.3879 16.995 24.1722 16.6789 24.7504 16.1163C25.3286 15.5537 25.6535 14.7906 25.6535 13.995V6C25.6535 5.20435 25.3286 4.44129 24.7504 3.87868C24.1722 3.31607 23.3879 3 22.5702 3C21.7524 3 20.9682 3.31607 20.3899 3.87868C19.8117 4.44129 19.4868 5.20435 19.4868 6V13.995C19.4868 14.3915 19.5676 14.7841 19.7244 15.15C19.8813 15.516 20.1112 15.848 20.4008 16.127C20.6904 16.406 21.0339 16.6263 21.4116 16.7753C21.7892 16.9243 22.1935 16.999 22.601 16.995H22.5702ZM33.8552 13.995C33.8552 13.1994 33.5303 12.4363 32.9521 11.8737C32.3738 11.3111 31.5896 10.995 30.7718 10.995C29.9541 10.995 29.1698 11.3111 28.5916 11.8737C28.0133 12.4363 27.6885 13.1994 27.6885 13.995V16.995H30.7718C31.1819 17.003 31.5895 16.9313 31.9707 16.7841C32.352 16.6369 32.6992 16.4172 32.9921 16.1378C33.2849 15.8584 33.5176 15.525 33.6764 15.1571C33.8352 14.7891 33.9169 14.3941 33.9168 13.995H33.8552ZM14.3993 19.005C13.5816 19.005 12.7973 19.3211 12.2191 19.8837C11.6408 20.4463 11.316 21.2094 11.316 22.005V30C11.316 30.7956 11.6408 31.5587 12.2191 32.1213C12.7973 32.6839 13.5816 33 14.3993 33C15.2171 33 16.0013 32.6839 16.5796 32.1213C17.1578 31.5587 17.4827 30.7956 17.4827 30V22.005C17.4827 21.2094 17.1578 20.4463 16.5796 19.8837C16.0013 19.3211 15.2171 19.005 14.3993 19.005ZM22.601 27H19.5177V30C19.5177 30.5933 19.6985 31.1734 20.0373 31.6667C20.3761 32.1601 20.8577 32.5446 21.4211 32.7716C21.9845 32.9987 22.6044 33.0581 23.2025 32.9424C23.8006 32.8266 24.35 32.5409 24.7812 32.1213C25.2125 31.7018 25.5061 31.1672 25.6251 30.5853C25.7441 30.0033 25.683 29.4001 25.4496 28.8519C25.2163 28.3038 24.8211 27.8352 24.314 27.5056C23.807 27.1759 23.2108 27 22.601 27ZM30.8335 19.005H22.601C21.7832 19.005 20.999 19.3211 20.4208 19.8837C19.8425 20.4463 19.5177 21.2094 19.5177 22.005C19.5177 22.8006 19.8425 23.5637 20.4208 24.1263C20.999 24.6889 21.7832 25.005 22.601 25.005H30.8335C31.6512 25.005 32.4355 24.6889 33.0137 24.1263C33.592 23.5637 33.9168 22.8006 33.9168 22.005C33.9168 21.2094 33.592 20.4463 33.0137 19.8837C32.4355 19.3211 31.6512 19.005 30.8335 19.005ZM14.3993 10.995H6.16683C5.34908 10.995 4.56482 11.3111 3.98658 11.8737C3.40835 12.4363 3.0835 13.1994 3.0835 13.995C3.0835 14.7906 3.40835 15.5537 3.98658 16.1163C4.56482 16.6789 5.34908 16.995 6.16683 16.995H14.3993C15.2171 16.995 16.0013 16.6789 16.5796 16.1163C17.1578 15.5537 17.4827 14.7906 17.4827 13.995C17.4827 13.1994 17.1578 12.4363 16.5796 11.8737C16.0013 11.3111 15.2171 10.995 14.3993 10.995ZM14.3993 3C13.5816 3 12.7973 3.31607 12.2191 3.87868C11.6408 4.44129 11.316 5.20435 11.316 6C11.316 6.79565 11.6408 7.55871 12.2191 8.12132C12.7973 8.68393 13.5816 9 14.3993 9H17.4827V6C17.4827 5.20435 17.1578 4.44129 16.5796 3.87868C16.0013 3.31607 15.2171 3 14.3993 3Z" fill="black"/>
</g>
</svg>
