<svg width="36" height="36" viewBox="0 0 36 36" fill="none" xmlns="http://www.w3.org/2000/svg">
<g id="snapchat / 24 / Outline">
<path id="Vector" d="M32.6962 25.4808C28.3969 24.7724 26.4698 20.3785 26.3902 20.1919L26.3821 20.1744C26.2599 19.9747 26.1829 19.7507 26.1564 19.5181C26.1299 19.2856 26.1546 19.05 26.2287 18.828C26.5175 18.1476 27.4728 17.8444 28.1057 17.6435C28.2638 17.5934 28.4132 17.546 28.5305 17.4995C29.6746 17.0476 29.9072 16.5797 29.9016 16.2666C29.8715 16.0713 29.7839 15.8894 29.6499 15.7442C29.516 15.599 29.3418 15.497 29.1495 15.4513L29.141 15.4481C28.9711 15.3798 28.7896 15.345 28.6065 15.3457C28.4453 15.3429 28.2853 15.3747 28.1372 15.4388C27.6905 15.6647 27.2036 15.8004 26.7043 15.838C26.4167 15.8448 26.1356 15.7508 25.91 15.5721C25.9238 15.3172 25.94 15.0543 25.9577 14.7764L25.9637 14.6785C26.2522 12.6575 26.1292 10.599 25.6024 8.62673C24.9812 7.21065 23.9566 6.00888 22.6567 5.17142C21.3567 4.33395 19.8389 3.89788 18.2927 3.91763C18.0916 3.91973 17.8904 3.92162 17.6891 3.9233C16.1451 3.90423 14.6297 4.3404 13.3321 5.17734C12.0345 6.01429 11.0121 7.21494 10.3927 8.62937C9.86584 10.5999 9.74274 12.6567 10.0308 14.676C10.0502 14.9747 10.0682 15.2736 10.0848 15.5725C9.83622 15.7673 9.5241 15.8627 9.2091 15.8402C8.67908 15.8175 8.16022 15.6805 7.6881 15.4385C7.57232 15.3874 7.4467 15.3623 7.32015 15.3651C7.05947 15.3548 6.8021 15.4263 6.58407 15.5696C6.36605 15.7129 6.19827 15.9207 6.10424 16.1641C5.98137 16.81 6.90359 17.2779 7.46426 17.4994C7.58276 17.5464 7.73159 17.5936 7.88888 17.6434C8.52141 17.8441 9.4775 18.1475 9.76616 18.8281C9.84021 19.0502 9.86485 19.2858 9.83836 19.5185C9.81188 19.7511 9.7349 19.9751 9.61281 20.1749L9.60476 20.1922C9.19028 21.0946 8.65036 21.934 8.00103 22.6854C6.82121 24.1529 5.15162 25.1456 3.29879 25.4812C3.21123 25.4956 3.13209 25.5419 3.07659 25.6111C3.02109 25.6804 2.99314 25.7677 2.99813 25.8563C3.00206 25.9233 3.0178 25.9892 3.04463 26.0508C3.3083 26.6674 4.63196 27.1767 6.87236 27.5223C7.08182 27.5547 7.17045 27.8962 7.29276 28.4556C7.34165 28.6795 7.39227 28.9119 7.46286 29.1519C7.48591 29.2583 7.54767 29.3523 7.63616 29.4157C7.72464 29.4791 7.83354 29.5074 7.94169 29.495C8.15639 29.483 8.36964 29.4525 8.57907 29.4037C9.13131 29.2832 9.69442 29.2195 10.2596 29.2135C10.6656 29.2145 11.0709 29.2488 11.4713 29.316C12.3173 29.5303 13.1043 29.9323 13.7738 30.4922C14.9038 31.4572 16.3239 32.0169 17.8084 32.0823C17.859 32.0823 17.9095 32.0805 17.9585 32.0763C18.0202 32.0792 18.1013 32.0823 18.1864 32.0823C19.6717 32.0165 21.0925 31.4565 22.2232 30.4911C22.8921 29.9318 23.6783 29.5302 24.5235 29.3161C24.924 29.2491 25.3294 29.2148 25.7355 29.2137C26.3002 29.2163 26.8633 29.276 27.416 29.3918C27.6257 29.4376 27.839 29.4646 28.0535 29.4723H28.0886C28.1902 29.4805 28.2912 29.4513 28.3728 29.3903C28.4544 29.3293 28.5109 29.2406 28.5318 29.1408C28.6015 28.9041 28.6525 28.6788 28.7026 28.4489C28.8238 27.8924 28.9125 27.5525 29.1228 27.52C31.3638 27.1738 32.6874 26.6653 32.9493 26.0521C32.9765 25.99 32.9927 25.9235 32.9969 25.8558C33.0018 25.7672 32.9738 25.68 32.9183 25.6108C32.8628 25.5415 32.7838 25.4952 32.6962 25.4808Z" fill="black"/>
</g>
</svg>
