<svg width="36" height="36" viewBox="0 0 36 36" fill="none" xmlns="http://www.w3.org/2000/svg">
<g id="tumblr / 24 / Outline">
<path id="Vector" d="M25.185 27C24.413 27.3191 23.5899 27.4969 22.755 27.525C22.3556 27.5685 21.9516 27.5197 21.574 27.3825C21.1964 27.2452 20.8554 27.0231 20.5772 26.7333C20.2989 26.4435 20.0909 26.0937 19.9692 25.7108C19.8475 25.328 19.8152 24.9223 19.875 24.525V15.18H25.875V10.68H19.875V3H15.495C15.438 3.00381 15.3845 3.02919 15.3455 3.07098C15.3065 3.11277 15.2849 3.16784 15.285 3.225C15.1904 5.0007 14.5813 6.71054 13.532 8.14611C12.4826 9.58168 11.0382 10.681 9.375 11.31V15.18H12.375V24.99C12.375 28.335 14.85 33.105 21.375 33C23.58 33 26.04 32.04 26.58 31.245L25.185 27Z" fill="black"/>
</g>
</svg>
