<svg width="18" height="17" viewBox="0 0 18 17" fill="none" xmlns="http://www.w3.org/2000/svg">
<path id="Vector" d="M18 12.7494C18 12.7887 17.995 12.8271 17.9941 12.8664C17.9866 13.1301 17.9548 13.3925 17.8991 13.6505H17.8895C17.4686 15.5648 15.7368 17 13.6623 17C13.0939 17.0007 12.531 16.8911 12.0058 16.6775C11.4807 16.4638 11.0037 16.1503 10.6023 15.7551L10.61 15.7479C10.209 15.3543 9.89097 14.8869 9.67414 14.3723C9.4573 13.8578 9.34592 13.3063 9.34636 12.7494C9.34591 10.402 11.2832 8.49888 13.6732 8.49888C14.2414 8.4982 14.8042 8.60784 15.3292 8.82148C15.8542 9.03513 16.331 9.34858 16.7323 9.74382L15.9627 10.5002C15.5097 10.0556 14.9327 9.75278 14.3046 9.63013C13.6765 9.50749 13.0255 9.5705 12.4339 9.81121C11.8422 10.0519 11.3364 10.4595 10.9805 10.9825C10.6246 11.5055 10.4344 12.1203 10.4341 12.7494C10.4341 13.4956 10.6977 14.1806 11.1359 14.7231C11.2132 14.8196 11.2991 14.9089 11.3868 14.9955L11.3777 15.0044C11.6779 15.2987 12.0341 15.5319 12.426 15.6909C12.8179 15.8499 13.2378 15.9315 13.6618 15.931C15.2645 15.931 16.5918 14.7861 16.8514 13.2844H13.6455V12.2145H17.9623C17.9845 12.39 18 12.5677 18 12.7494ZM13.6732 2.19828e-08V1.0699C14.3136 1.06998 14.9396 1.25663 15.4721 1.60623C16.0046 1.95582 16.4195 2.45268 16.6645 3.03396C16.9096 3.61524 16.9736 4.25484 16.8486 4.87188C16.7236 5.48893 16.4152 6.0557 15.9623 6.50055C15.5094 6.94539 14.9324 7.24831 14.3043 7.37102C13.6762 7.49373 13.0251 7.43071 12.4334 7.18992C11.8417 6.94914 11.336 6.54141 10.9802 6.01829C10.6244 5.49517 10.4345 4.88015 10.4345 4.251H9.34545C9.34545 6.59843 11.2827 8.50201 13.6727 8.50201C16.0618 8.50201 17.9991 6.59843 17.9991 4.251C17.9995 1.90357 16.0623 2.19828e-08 13.6727 2.19828e-08H13.6732ZM7.83227 2.50282L5.75591 6.80518C5.58955 7.16017 5.28682 7.41827 5.02409 7.42675H4.98409C4.72818 7.4214 4.42227 7.16196 4.25455 6.80518L1.2 0.304536H0L3.26591 7.25394C3.63182 8.03225 4.27636 8.49665 4.99091 8.49665H5.01909C5.73318 8.49665 6.37818 8.03225 6.74455 7.25439L8.80864 2.97794C9.06095 2.41086 9.47612 1.92837 10.0033 1.58955C10.5305 1.25073 11.1468 1.0703 11.7768 1.07034V2.19828e-08C10.9437 -8.31813e-05 10.1283 0.236024 9.42848 0.67998C8.72862 1.12394 8.17406 1.75688 7.83136 2.50282H7.83227ZM5.01909 8.49844C2.63 8.49844 0.692273 10.402 0.692273 12.7494C0.692273 15.0969 2.63 16.9995 5.01955 16.9995C7.40864 16.9995 9.34591 15.0969 9.34591 12.7494C9.34591 10.402 7.40909 8.49844 5.01909 8.49844ZM5.01909 15.9198C4.16298 15.9198 3.34194 15.5857 2.73658 14.991C2.13122 14.3964 1.79114 13.5898 1.79114 12.7488C1.79114 11.9078 2.13122 11.1012 2.73658 10.5065C3.34194 9.9118 4.16298 9.57771 5.01909 9.57771C5.8752 9.57771 6.69624 9.9118 7.3016 10.5065C7.90696 11.1012 8.24705 11.9078 8.24705 12.7488C8.24705 13.5898 7.90696 14.3964 7.3016 14.991C6.69624 15.5857 5.8752 15.9198 5.01909 15.9198Z" fill="black"/>
</svg>
