<svg width="16" height="16" viewBox="0 0 16 16" fill="none" xmlns="http://www.w3.org/2000/svg">
<g id="wp 1" clip-path="url(#clip0_4_2)">
<path id="Vector" d="M8 0.48C9.01542 0.48 10.0002 0.678769 10.927 1.07076C11.3725 1.25919 11.8022 1.49242 12.2042 1.764C12.6025 2.03309 12.977 2.34214 13.3174 2.68255C13.6579 3.02297 13.9669 3.39754 14.236 3.79582C14.5076 4.19782 14.7408 4.62752 14.9292 5.073C15.3212 5.99981 15.52 6.98458 15.52 7.99998C15.52 9.01537 15.3212 10.0002 14.9292 10.9269C14.7408 11.3724 14.5076 11.8022 14.236 12.2041C13.9669 12.6024 13.6579 12.977 13.3174 13.3174C12.977 13.6578 12.6025 13.9669 12.2042 14.2359C11.8022 14.5075 11.3725 14.7408 10.927 14.9292C10.0002 15.3212 9.01539 15.52 8 15.52C6.98461 15.52 5.99981 15.3212 5.07303 14.9292C4.62754 14.7408 4.19782 14.5075 3.79584 14.2359C3.39754 13.9669 3.02297 13.6578 2.68258 13.3174C2.34214 12.9771 2.03309 12.6025 1.764 12.2042C1.49242 11.8022 1.25919 11.3725 1.07076 10.927C0.678769 10.0002 0.48 9.01542 0.48 8C0.48 6.98458 0.678769 5.99981 1.07076 5.07303C1.25919 4.62754 1.49244 4.19784 1.764 3.79584C2.03309 3.39754 2.34214 3.02299 2.68255 2.68258C3.02297 2.34216 3.39754 2.03311 3.79582 1.76403C4.19782 1.49244 4.62752 1.25921 5.073 1.07079C5.99981 0.678769 6.98461 0.48 8 0.48ZM8 0C3.58174 0 0 3.58172 0 8C0 12.4183 3.58174 16 8 16C12.4183 16 16 12.4183 16 8C16 3.58172 12.4183 0 8 0Z" fill="#0D0D0D"/>
<path id="Vector_2" d="M1.33337 7.99976C1.33337 10.6384 2.86673 12.919 5.09081 13.9995L1.91061 5.28668C1.54073 6.11571 1.33337 7.03323 1.33337 7.99976ZM12.5006 7.66354C12.5006 6.83938 12.2045 6.26895 11.951 5.82502C11.613 5.27561 11.2961 4.8108 11.2961 4.26142C11.2961 3.6487 11.7608 3.07827 12.4156 3.07827C12.4452 3.07827 12.4732 3.08182 12.502 3.08367C11.3159 1.9969 9.73563 1.33335 8.00004 1.33335C5.67084 1.33335 3.62194 2.52843 2.42983 4.33808C2.58636 4.34302 2.73384 4.34616 2.8589 4.34616C3.55606 4.34616 4.63572 4.26142 4.63572 4.26142C4.9949 4.24037 5.03738 4.76835 4.67834 4.8108C4.67834 4.8108 4.31707 4.85312 3.91541 4.87416L6.34301 12.0954L7.80216 7.71992L6.76356 4.87414C6.40438 4.85309 6.06432 4.81078 6.06432 4.81078C5.70495 4.78956 5.74707 4.24035 6.10661 4.2614C6.10661 4.2614 7.20732 4.34614 7.86238 4.34614C8.55953 4.34614 9.63939 4.2614 9.63939 4.2614C9.99877 4.24035 10.041 4.76832 9.68184 4.81078C9.68184 4.81078 9.32021 4.85309 8.91891 4.87414L11.3282 12.0404L12.0159 9.8611C12.3214 8.90874 12.5006 8.23398 12.5006 7.66354ZM8.11716 8.58289L6.11662 14.395C6.71407 14.5708 7.34571 14.6667 8.00004 14.6667C8.77637 14.6667 9.52114 14.5327 10.214 14.2887C10.1962 14.2602 10.1797 14.2299 10.1661 14.1968L8.11716 8.58289ZM13.8502 4.80159C13.8789 5.01389 13.8951 5.24168 13.8951 5.48705C13.8951 6.1633 13.7684 6.92377 13.3879 7.87479L11.3518 13.7619C13.3338 12.6064 14.6667 10.4592 14.6667 7.99974C14.6667 6.84068 14.3705 5.75103 13.8502 4.80159Z" fill="#0D0D0D"/>
</g>
<defs>
<clipPath id="clip0_4_2">
<rect width="16" height="16" fill="white"/>
</clipPath>
</defs>
</svg>
