<svg width="36" height="36" viewBox="0 0 36 36" fill="none" xmlns="http://www.w3.org/2000/svg">
<g id="telegram / 24 / Outline">
<path id="Vector" d="M33.397 3.64167C32.97 3.28637 32.4545 3.05351 31.9056 2.96788C31.3567 2.88224 30.7949 2.94703 30.2798 3.15535L3.39849 14.0084C2.82361 14.2449 2.33426 14.6507 1.99539 15.1718C1.65651 15.6929 1.48414 16.3048 1.50115 16.9262C1.51815 17.5476 1.72374 18.1491 2.09061 18.651C2.45748 19.1528 2.96829 19.5312 3.55524 19.7359L8.99274 21.627L12.0235 31.6495C12.0647 31.7834 12.1244 31.9108 12.2011 32.0281C12.2127 32.0461 12.2291 32.0595 12.2414 32.077C12.3299 32.2004 12.4369 32.3096 12.5586 32.4006C12.5932 32.427 12.6263 32.4517 12.6633 32.4751C12.8057 32.5696 12.9634 32.6387 13.1294 32.6793L13.1472 32.6808L13.1572 32.6851C13.257 32.7054 13.3586 32.7157 13.4605 32.7159C13.4703 32.7159 13.479 32.7112 13.4887 32.711C13.6424 32.7083 13.7947 32.6818 13.9403 32.6325C13.9742 32.621 14.0032 32.6017 14.0361 32.5878C14.1446 32.5428 14.2475 32.4851 14.3425 32.4159C14.4186 32.3518 14.4947 32.2877 14.5708 32.2237L18.6241 27.7486L24.6695 32.4317C25.2017 32.846 25.8568 33.0713 26.5313 33.0718C27.2381 33.0709 27.923 32.8271 28.4714 32.3811C29.0197 31.9352 29.3981 31.3143 29.543 30.6226L34.4371 6.59773C34.548 6.05701 34.5098 5.49631 34.3266 4.97562C34.1434 4.45492 33.8221 3.99383 33.397 3.64167ZM14.0552 22.1046C13.8473 22.3117 13.7051 22.5757 13.6465 22.8634L13.1823 25.1194L12.0062 21.2298L18.1041 18.0543L14.0552 22.1046ZM26.5079 30.0601L19.3638 24.5259C19.0649 24.2949 18.69 24.1851 18.3137 24.2182C17.9375 24.2513 17.5875 24.425 17.3335 24.7046L16.0354 26.1374L16.4942 23.9077L27.1187 13.2832C27.3723 13.03 27.5268 12.6943 27.5542 12.3369C27.5817 11.9796 27.4802 11.6242 27.2682 11.3352C27.0563 11.0462 26.7478 10.8427 26.3987 10.7615C26.0497 10.6803 25.683 10.7268 25.3653 10.8926L10.1174 18.8316L4.53082 16.7872L31.4986 5.99857L26.5079 30.0601Z" fill="black"/>
</g>
</svg>
