<svg width="71" height="72" viewBox="0 0 71 72" fill="none" xmlns="http://www.w3.org/2000/svg">
<g id="026---Idea" clip-path="url(#clip0_2699_568)">
<path id="Shape" d="M65.6717 37.7429C65.4548 36.613 64.4666 35.7959 63.3161 35.7953H60.9989L60.8285 34.7741C60.6585 33.7484 59.8504 32.947 58.8233 32.7857C58.5953 32.7497 58.3649 32.7257 58.1381 32.6945C58.531 30.8599 58.2046 28.9445 57.2261 27.3437C57.743 26.0026 57.6466 24.5024 56.962 23.2387C56.2775 21.9749 55.0737 21.0745 53.6681 20.7749C52.7694 15.9653 48.5852 12.4691 43.6925 12.4397C43.5725 12.4397 43.4657 12.4553 43.3517 12.4589C42.5699 11.2311 41.2809 10.4162 39.8365 10.2366C38.3921 10.0569 36.9428 10.5312 35.8841 11.5301C34.5503 10.6631 32.994 10.2009 31.4033 10.1993C28.8401 10.2098 26.4245 11.3994 24.8537 13.4249C23.1095 12.9163 21.2287 13.2286 19.7425 14.2735C18.2563 15.3185 17.326 16.9827 17.2145 18.7961C15.3825 19.5662 14.1904 21.3592 14.1893 23.3465C14.193 23.691 14.2332 24.0341 14.3093 24.3701C12.6891 26.8125 12.2658 29.8584 13.1585 32.6501C12.8369 32.6945 12.5081 32.7341 12.1985 32.7797C11.166 32.9354 10.3507 33.7372 10.1777 34.7669L10.0073 35.7917H7.68406C6.53548 35.7925 5.54847 36.6069 5.32966 37.7345L0.0748638 64.7129C-0.130354 65.7694 0.147932 66.8624 0.83344 67.6922C1.51895 68.5219 2.53976 69.0014 3.61606 68.9993H28.6409C29.6345 70.6385 32.6537 71.3993 35.5001 71.3993C38.3165 71.3993 41.3069 70.6565 42.3293 68.9993H67.3841C68.4601 69.0014 69.4807 68.522 70.1661 67.6925C70.8516 66.8631 71.1301 65.7705 70.9253 64.7141L65.6717 37.7429ZM17.8181 25.5185C16.8437 24.9326 16.3787 23.7697 16.6806 22.6736C16.9824 21.5775 17.9772 20.8165 19.1141 20.8121C19.9097 20.8097 20.6585 21.1879 21.1289 21.8297C21.3844 22.1739 21.8041 22.3557 22.23 22.3066C22.6559 22.2574 23.0233 21.9848 23.1936 21.5914C23.364 21.198 23.3116 20.7435 23.0561 20.3993C22.2412 19.3102 21.0064 18.6135 19.6529 18.4793C20.0106 16.7987 21.4926 15.5956 23.2109 15.5909C23.3573 15.5983 23.5031 15.6143 23.6477 15.6389C23.5511 15.8849 23.467 16.1356 23.3957 16.3901C23.2463 17.0253 23.6319 17.6634 24.2637 17.8266C24.8955 17.9898 25.5419 17.6182 25.7189 16.9901C25.8553 16.4627 26.065 15.9569 26.3417 15.4877C27.4061 13.7044 29.3265 12.6086 31.4033 12.5993C32.5335 12.6043 33.638 12.9378 34.5821 13.5593C34.4022 14.0646 34.3069 14.5961 34.3001 15.1325C34.3001 15.7952 34.8373 16.3325 35.5001 16.3325C36.1628 16.3325 36.7001 15.7952 36.7001 15.1325C36.7001 13.7384 37.8302 12.6083 39.2243 12.6083C40.6183 12.6083 41.7485 13.7384 41.7485 15.1325C41.7485 15.7952 42.2857 16.3325 42.9485 16.3325C43.6112 16.3325 44.1485 15.7952 44.1485 15.1325C44.1485 15.0401 44.1257 14.9525 44.1209 14.8601C47.5569 15.0721 50.4462 17.5145 51.2273 20.8673C50.6675 21.0302 50.1416 21.2924 49.6745 21.6413C49.3315 21.8985 49.1518 22.3192 49.2031 22.7448C49.2544 23.1705 49.5288 23.5364 49.9231 23.7048C50.3173 23.8732 50.7715 23.8185 51.1145 23.5613C52.0734 22.8513 53.398 22.9079 54.2929 23.6971C55.1877 24.4863 55.4094 25.7935 54.8249 26.8337C54.5636 27.293 54.1667 27.6602 53.6885 27.8849C53.187 28.1277 52.9186 28.6838 53.0405 29.2275C53.1624 29.7712 53.6425 30.1594 54.1997 30.1649C54.3756 30.1651 54.5494 30.1262 54.7085 30.0509C55.0265 29.8968 55.327 29.7089 55.6049 29.4905C56.2252 31.254 55.8361 33.2153 54.5897 34.6085L54.5609 34.6385C52.9975 36.332 50.5037 36.7897 48.4409 35.7617C48.2388 35.655 48.0447 35.5338 47.8601 35.3993C48.7439 34.1601 48.866 32.5324 48.1769 31.1753C47.9839 30.7922 47.6013 30.5412 47.1731 30.5167C46.7449 30.4923 46.3362 30.6981 46.1009 31.0567C45.8656 31.4153 45.8395 31.8722 46.0325 32.2553C46.4271 33.0484 46.1809 34.0109 45.4541 34.5173C45.0272 34.8015 44.4999 34.8913 44.003 34.7646C43.5061 34.6379 43.0863 34.3064 42.8477 33.8525C42.6558 33.469 42.2739 33.217 41.8459 33.1914C41.4179 33.1658 41.0087 33.3705 40.7725 33.7284C40.5363 34.0863 40.509 34.543 40.7009 34.9265C41.4046 36.3471 42.8547 37.2443 44.4401 37.2401C44.9562 37.2366 45.4671 37.136 45.9461 36.9437C46.3747 37.3189 46.8469 37.6412 47.3525 37.9037C49.0627 38.7902 51.0515 38.974 52.8953 38.4161C51.7094 40.0353 49.9346 41.1235 47.9537 41.4461C47.3374 41.5464 46.901 42.1026 46.9502 42.725C46.9994 43.3475 47.5177 43.8282 48.1421 43.8305C48.2059 43.8305 48.2697 43.8256 48.3329 43.8161C49.0636 43.6896 49.7777 43.4811 50.4617 43.1945C50.8313 43.8481 51.1314 44.5386 51.3569 45.2549C51.3982 45.3799 51.4192 45.5108 51.4193 45.6425C51.419 46.1611 51.1092 46.6296 50.6321 46.8329C50.0801 47.0464 49.4534 46.8779 49.0829 46.4165C48.1535 45.3251 46.9366 44.5165 45.5705 44.0825C42.9773 43.2137 41.9765 42.4373 41.5517 41.5925C42.1743 41.5148 42.7895 41.3864 43.3913 41.2085C43.8011 41.0824 44.1126 40.7473 44.2084 40.3293C44.3041 39.9114 44.1697 39.4741 43.8556 39.1821C43.5415 38.8902 43.0955 38.788 42.6857 38.9141C42.0123 39.1207 41.3173 39.2483 40.6145 39.2945C39.2605 39.4003 37.9002 39.1951 36.6377 38.6945C36.1636 38.5096 35.6245 38.6438 35.2925 39.0293C33.5453 41.0362 30.555 41.3773 28.4008 39.8154C26.2465 38.2535 25.641 35.3054 27.0053 33.0209C27.2263 32.652 27.2337 32.1932 27.0247 31.8173C26.8157 31.4415 26.4221 31.2057 25.9921 31.1987C25.5621 31.1918 25.1611 31.4148 24.9401 31.7837C24.6538 32.2709 24.4235 32.789 24.2537 33.3281C23.3087 33.2784 22.5636 32.5054 22.5485 31.5593V31.5293C22.5478 31.2126 22.4207 30.9094 22.1954 30.6869C21.97 30.4645 21.6651 30.3414 21.3485 30.3449C20.6829 30.3515 20.1471 30.8936 20.1485 31.5593C20.1538 33.6874 21.7587 35.4712 23.8745 35.7005C23.8788 36.1027 23.9153 36.504 23.9837 36.9005C21.3043 37.4802 18.5253 36.5171 16.7793 34.4037C15.0333 32.2903 14.6119 29.3795 15.6869 26.8577C15.9553 27.1293 16.255 27.3682 16.5797 27.5693C17.1465 27.9013 17.8751 27.7158 18.2141 27.1531C18.5531 26.5903 18.3766 25.8596 17.8181 25.5137V25.5185ZM12.5381 35.1581C13.0913 35.0765 13.6625 35.0045 14.2301 34.9301C16.4488 38.4756 20.6922 40.1972 24.7541 39.1997C25.8455 41.2711 27.8397 42.7156 30.1482 43.1069C32.4566 43.4981 34.8155 42.7914 36.5285 41.1953C37.344 41.4385 38.1839 41.5906 39.0329 41.6489C39.6125 43.8473 41.2877 45.1793 44.8073 46.3589C45.7561 46.6563 46.6025 47.2138 47.2505 47.9681C47.9708 48.8247 49.0305 49.3225 50.1497 49.3301C50.6391 49.3299 51.1236 49.2312 51.5741 49.0397C52.9343 48.4583 53.8167 47.1217 53.8169 45.6425C53.818 45.2567 53.7564 44.8733 53.6345 44.5073C53.3646 43.6594 53.0092 42.8412 52.5737 42.0653C54.6142 40.5984 56.0357 38.4244 56.5613 35.9669C56.8168 35.6632 57.048 35.3398 57.2525 34.9997C57.6545 35.0513 58.0565 35.0969 58.4609 35.1641L62.7929 61.2209C54.3251 58.3933 45.1679 58.3933 36.7001 61.2209V46.1993C36.7001 45.5365 36.1628 44.9993 35.5001 44.9993C34.8373 44.9993 34.3001 45.5365 34.3001 46.1993V61.2257C25.8332 58.3955 16.6762 58.3922 8.20726 61.2161L12.5381 35.1581ZM2.68126 66.1577C2.45452 65.8838 2.36209 65.5229 2.42926 65.1737L7.68406 38.1953H9.60406L5.83846 60.8261C5.70602 61.6498 6.00932 62.4834 6.64014 63.0294C7.27097 63.5754 8.13944 63.7561 8.93566 63.5069C15.3329 61.4343 22.1482 61.0019 28.7561 62.2493L28.3985 66.5993H3.61606C3.25405 66.5995 2.91098 66.4375 2.68126 66.1577ZM35.5001 68.9993C32.6093 68.9993 30.9509 68.1449 30.7073 67.7645L31.1201 62.7845C32.4396 63.113 33.7308 63.546 34.9817 64.0793C35.1434 64.1572 35.3205 64.1982 35.5001 64.1993C35.6801 64.199 35.8577 64.158 36.0197 64.0793C37.2697 63.5428 38.5606 63.1071 39.8801 62.7761L40.2929 67.7633C40.0493 68.1449 38.3909 68.9993 35.5001 68.9993ZM68.3189 66.1577C68.0891 66.4375 67.7461 66.5995 67.3841 66.5993H42.6053L42.2453 62.2409C48.8568 60.996 55.6751 61.4322 62.0741 63.5093C62.8701 63.7552 63.7367 63.572 64.3651 63.0249C64.9935 62.4779 65.2943 61.6448 65.1605 60.8225L61.3985 38.1965H63.3185L68.5745 65.1725C68.641 65.5226 68.5472 65.8841 68.3189 66.1577Z" fill="#2DC071"/>
<path id="Shape_2" d="M31.5233 27.8215C31.0321 28.2659 30.9939 29.0244 31.4381 29.5159C32.4561 30.6398 33.8014 31.4155 35.2841 31.7335C34.6126 32.6797 33.5236 33.2412 32.3633 33.2395C31.7006 33.2395 31.1633 33.7767 31.1633 34.4395C31.1633 35.1022 31.7006 35.6395 32.3633 35.6395C34.8475 35.6494 37.0765 34.1151 37.9541 31.7911C40.938 31.2966 43.3003 28.9998 43.8785 26.0311C43.9679 25.6064 43.821 25.1667 43.4944 24.8809C43.1679 24.5952 42.7125 24.508 42.3035 24.6529C41.8944 24.7978 41.5955 25.1523 41.5217 25.5799C41.2864 26.8176 40.5723 27.9124 39.5345 28.6267C37.538 29.9713 34.8604 29.6661 33.2177 27.9067C32.7733 27.4155 32.0148 27.3773 31.5233 27.8215Z" fill="#2DC071"/>
<path id="Shape_3" d="M27.3401 26.5198C28.0029 26.5198 28.5401 25.9825 28.5401 25.3198C28.5401 24.4923 28.8689 23.6987 29.454 23.1136C30.0391 22.5285 30.8327 22.1998 31.6601 22.1998C32.3229 22.1998 32.8601 21.6625 32.8601 20.9998C32.8601 20.3371 32.3229 19.7998 31.6601 19.7998C28.6129 19.8031 26.1434 22.2726 26.1401 25.3198C26.1401 25.6381 26.2666 25.9433 26.4916 26.1683C26.7167 26.3934 27.0219 26.5198 27.3401 26.5198Z" fill="#2DC071"/>
<path id="Shape_4" d="M36.6998 2.99961V1.79961C36.6998 1.13687 36.1625 0.599609 35.4998 0.599609C34.8371 0.599609 34.2998 1.13687 34.2998 1.79961V2.99961C34.2998 3.66235 34.8371 4.19961 35.4998 4.19961C36.1625 4.19961 36.6998 3.66235 36.6998 2.99961Z" fill="#2DC071"/>
<path id="Shape_5" d="M55.1924 9.2111L53.9924 10.4111C53.6804 10.7124 53.5553 11.1586 53.6651 11.5781C53.7749 11.9977 54.1026 12.3253 54.5221 12.4351C54.9417 12.545 55.3879 12.4198 55.6892 12.1079L56.8892 10.9079C57.2011 10.6066 57.3262 10.1604 57.2164 9.74089C57.1066 9.32134 56.7789 8.99368 56.3594 8.88387C55.9398 8.77405 55.4936 8.89915 55.1924 9.2111Z" fill="#2DC071"/>
<path id="Shape_6" d="M16.1599 12.4595C16.6452 12.4594 17.0826 12.167 17.2683 11.7187C17.454 11.2703 17.3514 10.7543 17.0083 10.4111L15.8083 9.2111C15.507 8.89915 15.0608 8.77405 14.6413 8.88387C14.2217 8.99368 13.8941 9.32134 13.7843 9.74089C13.6744 10.1604 13.7995 10.6066 14.1115 10.9079L15.3115 12.1079C15.5365 12.333 15.8417 12.4594 16.1599 12.4595Z" fill="#2DC071"/>
<path id="Shape_7" d="M25.3971 7.40934C25.5548 7.40901 25.7109 7.37803 25.8567 7.31814C26.1509 7.19631 26.3845 6.96259 26.5063 6.66844C26.628 6.37429 26.6279 6.04381 26.5059 5.74974L25.1271 2.42334C24.9692 2.0182 24.6044 1.73019 24.1737 1.67055C23.743 1.6109 23.3137 1.78894 23.0516 2.13592C22.7895 2.48291 22.7356 2.94453 22.9107 3.34254L24.2883 6.66894C24.4742 7.11725 24.9118 7.40947 25.3971 7.40934Z" fill="#2DC071"/>
<path id="Shape_8" d="M47.4403 1.77407C46.8283 1.52087 46.1269 1.81144 45.8731 2.42327L44.4943 5.74967C44.372 6.04387 44.3717 6.37466 44.4935 6.66909C44.6152 6.96353 44.8491 7.19745 45.1435 7.31927C45.2894 7.37916 45.4455 7.41013 45.6031 7.41047C46.0885 7.41059 46.5261 7.11838 46.7119 6.67007L48.0895 3.34367C48.2119 3.04947 48.2122 2.71869 48.0904 2.42425C47.9686 2.12981 47.7348 1.8959 47.4403 1.77407Z" fill="#2DC071"/>
<path id="Shape_9" d="M59.8903 21.6978C60.0481 21.6975 60.2043 21.6661 60.3499 21.6054L63.6751 20.2278C64.0712 20.0638 64.3498 19.701 64.4059 19.2759C64.4619 18.8508 64.2869 18.4282 63.9469 18.1671C63.6068 17.906 63.1532 17.8462 62.7571 18.0102L59.4307 19.3878C58.8999 19.6058 58.5977 20.1692 58.7097 20.732C58.8217 21.2948 59.3165 21.6995 59.8903 21.6978Z" fill="#2DC071"/>
<path id="Shape_10" d="M10.6506 21.6057C11.2629 21.8595 11.9651 21.5689 12.219 20.9565C12.4728 20.3441 12.1821 19.6419 11.5698 19.3881L8.24335 18.0105C7.63098 17.757 6.92905 18.0479 6.67555 18.6603C6.42205 19.2727 6.71297 19.9746 7.32535 20.2281L10.6506 21.6057Z" fill="#2DC071"/>
</g>
<defs>
<clipPath id="clip0_2699_568">
<rect width="70.9823" height="70.8" fill="white" transform="translate(0.00878906 0.599609)"/>
</clipPath>
</defs>
</svg>
