<svg width="39" height="68" viewBox="0 0 39 68" fill="none" xmlns="http://www.w3.org/2000/svg">
<g id="Frame" clip-path="url(#clip0_2699_602)">
<path id="Vector" d="M38.3043 6.3459C37.4827 4.37115 35.2159 3.43635 33.2413 4.2579C33.2076 4.272 33.174 4.2864 33.1407 4.3014L23.4105 9.3489C23.7942 8.5536 23.9956 7.6827 24 6.7998C24 3.48615 21.3136 0.799805 18 0.799805C14.6863 0.799805 12 3.48615 12 6.7998C12.0045 8.10225 12.4369 9.3672 13.2307 10.3998H13.1808C9.7746 10.4226 6.73395 12.5402 5.5314 15.7272L2.328 26.7686C1.5654 28.7495 2.553 30.9737 4.53405 31.7363C5.43735 32.084 6.4386 32.0781 7.33785 31.7198C8.37105 31.3035 9.17505 30.4629 9.5451 29.4123L10.8 25.4186V42.786C9.7674 41.9924 8.50245 41.5599 7.2 41.5553C3.8913 41.5503 1.20495 44.2286 1.2 47.5374C1.1976 49.1579 1.8516 50.7101 3.01305 51.8402C1.16985 52.7819 0.00720003 54.6743 3.14169e-08 56.7439V66.7998C-0.000149969 67.4623 0.53685 67.9996 1.1994 67.9998C1.19955 67.9998 1.19985 67.9998 1.2 67.9998H13.2C13.8625 68 14.3998 67.463 14.4 66.8004C14.4 66.8002 14.4 66.7999 14.4 66.7998V56.7439C14.3941 55.0431 13.6039 53.4402 12.2586 52.3998H21.3415C19.996 53.4402 19.2059 55.0431 19.2001 56.7439V66.7998C19.2 67.4623 19.737 67.9996 20.3995 67.9998C20.3997 67.9998 20.4 67.9998 20.4002 67.9998H32.4002C33.0627 68 33.6 67.463 33.6001 66.8004C33.6001 66.8002 33.6001 66.7999 33.6001 66.7998V56.7439C33.5929 54.6743 32.4303 52.7819 30.5871 51.8402C32.9563 49.5276 33.0024 45.7322 30.6898 43.3629C29.2657 41.9039 27.1977 41.2686 25.2001 41.6766V17.1287L36.2163 11.4087C38.1909 10.5873 39.1257 8.3205 38.3043 6.3459ZM18 3.1998C19.9882 3.1998 21.6 4.81155 21.6 6.7998C21.6 8.78805 19.9882 10.3998 18 10.3998C16.0126 10.3977 14.4021 8.78715 14.4 6.7998C14.4 4.81155 16.0117 3.1998 18 3.1998ZM7.2 43.9553C9.18825 43.9553 10.8 45.567 10.8 47.5553C10.8 49.5435 9.18825 51.1553 7.2 51.1553C5.21175 51.1553 3.6 49.5435 3.6 47.5553C3.6021 45.5679 5.21265 43.9575 7.2 43.9553ZM12 65.5998H2.4V56.7439C2.4024 55.0083 3.80895 53.6019 5.54475 53.5998H8.85525C10.5909 53.6019 11.9976 55.0083 12 56.7439V65.5998ZM31.2 56.7439V65.5998H21.6V56.7439C21.6024 55.0083 23.0089 53.6019 24.7447 53.5998H28.0552C29.791 53.6019 31.1976 55.0083 31.2 56.7439ZM26.4 43.9553C28.3873 43.9574 29.9979 45.5679 30 47.5553C30 49.5435 28.3882 51.1553 26.4 51.1553C24.4117 51.1553 22.8 49.5435 22.8 47.5553C22.8 45.567 24.4117 43.9553 26.4 43.9553ZM36.1084 8.3478C35.9478 8.76 35.618 9.08355 35.2026 9.2361L23.4475 15.3345C23.0497 15.5409 22.8 15.9518 22.8 16.3998V42.786C20.5522 44.448 19.7736 47.456 20.9328 49.9998H19.2V29.5998H16.8V49.9998H12.6672C13.0086 49.2453 13.1884 48.4278 13.1955 47.5998H13.2V17.5998C13.1998 16.937 12.6624 16.3998 11.9997 16.4C11.4757 16.4001 11.0124 16.7402 10.8552 17.2401L7.272 28.6424C7.0005 29.3912 6.17325 29.7782 5.42445 29.5065C5.37195 29.4875 5.3205 29.4654 5.2704 29.4404C4.57815 29.0826 4.2843 28.2474 4.6002 27.5349L7.80345 16.4936C8.6673 14.2751 10.7998 12.8102 13.1806 12.7998H21.6774C21.8697 12.8001 22.0593 12.7538 22.23 12.6651L34.1568 6.47415C34.8723 6.17565 35.697 6.48105 36.0453 7.17375C36.2299 7.53885 36.2529 7.96485 36.1084 8.3478Z" fill="#FF7B52"/>
</g>
<defs>
<clipPath id="clip0_2699_602">
<rect width="38.6023" height="67.2" fill="white" transform="translate(0 0.799805)"/>
</clipPath>
</defs>
</svg>
