<svg width="15" height="27" viewBox="0 0 15 27" fill="none" xmlns="http://www.w3.org/2000/svg">
<g id="Frame" clip-path="url(#clip0_2699_605)">
<path id="Vector" d="M11.7869 10.8406C14.1603 8.52815 14.2098 4.7294 11.8974 2.35595C9.585 -0.0175 5.78625 -0.067 3.4128 2.2454C1.03935 4.5578 0.989852 8.35655 3.30225 10.73C3.3387 10.7674 3.3756 10.8043 3.41295 10.8406C1.5699 11.7823 0.407102 13.6746 0.399902 15.7443V25.8002C0.399752 26.4627 0.936753 27 1.5993 27.0002C1.59945 27.0002 1.59975 27.0002 1.5999 27.0002H13.5999C14.2625 27.0003 14.7998 26.4633 14.7999 25.8008C14.7999 25.8006 14.7999 25.8003 14.7999 25.8002V15.7443C14.7927 13.6746 13.6301 11.7823 11.7869 10.8406ZM7.5999 2.95565C9.58815 2.95565 11.1999 4.5674 11.1999 6.55565C11.1999 8.5439 9.58815 10.1557 7.5999 10.1557C5.61165 10.1557 3.9999 8.5439 3.9999 6.55565C4.002 4.5683 5.61255 2.9579 7.5999 2.95565ZM12.3999 24.6002H2.7999V15.7443C2.8023 14.0087 4.20885 12.6023 5.94465 12.6002H9.25515C10.9908 12.6023 12.3975 14.0087 12.3999 15.7443V24.6002Z" fill="#FF7B52"/>
</g>
<defs>
<clipPath id="clip0_2699_605">
<rect width="14.4" height="26.4572" fill="white" transform="translate(0.399902 0.542969)"/>
</clipPath>
</defs>
</svg>
